<?xml version="1.0" standalone="no"?>
<!DOCTYPE svg PUBLIC "-//W3C//DTD SVG 20010904//EN"
 "http://www.w3.org/TR/2001/REC-SVG-20010904/DTD/svg10.dtd">
<svg version="1.0" xmlns="http://www.w3.org/2000/svg"
 width="512.000000pt" height="512.000000pt" viewBox="0 0 512.000000 512.000000"
 preserveAspectRatio="xMidYMid meet">

<g transform="translate(0.000000,512.000000) scale(0.100000,-0.100000)"
fill="#000000" stroke="none">
<path d="M1526 5098 c-22 -13 -48 -35 -59 -50 -39 -52 -34 -103 38 -378 37
-140 77 -273 88 -294 38 -69 143 -100 213 -63 16 9 146 113 289 232 270 225
305 262 305 331 0 63 -35 120 -92 150 -24 12 -494 75 -673 89 -61 5 -75 3
-109 -17z m424 -179 c151 -18 278 -35 282 -38 4 -4 -105 -100 -243 -215 -140
-117 -254 -205 -259 -200 -8 9 -130 464 -130 486 0 7 13 9 38 5 20 -3 161 -20
312 -38z"/>
<path d="M2959 4995 c-110 -40 -229 -157 -298 -292 -28 -55 -27 -88 4 -118 25
-26 63 -32 95 -15 10 6 34 38 51 71 60 111 154 197 236 214 94 19 78 156 -18
154 -19 0 -50 -6 -70 -14z"/>
<path d="M3865 4983 c-100 -22 -319 -118 -465 -203 -88 -51 -174 -129 -201
-182 -27 -52 -25 -132 3 -174 39 -57 85 -75 294 -110 54 -9 113 -22 130 -29
75 -31 215 -197 254 -302 21 -56 21 -63 9 -195 -19 -222 -8 -272 71 -325 73
-50 198 -16 309 83 71 63 247 264 300 343 97 142 121 248 82 353 -32 83 -80
139 -173 200 -85 56 -145 114 -172 165 -8 16 -26 65 -41 110 -45 140 -121 226
-228 258 -48 14 -128 18 -172 8z m138 -167 c50 -20 80 -64 116 -167 55 -158
129 -251 272 -341 127 -81 146 -163 70 -293 -52 -87 -258 -321 -336 -381 -16
-12 -43 -26 -59 -30 l-29 -7 9 124 c5 68 9 156 8 196 l-1 72 28 -30 c110 -118
320 -47 345 117 20 136 -114 257 -248 224 -87 -22 -157 -107 -158 -190 l0 -35
-27 45 c-31 52 -103 148 -152 203 l-33 37 51 0 c145 0 241 144 186 278 -43
101 -167 151 -268 108 -39 -17 -92 -71 -106 -109 -18 -46 -13 -128 9 -170 21
-39 20 -43 -8 -28 -9 5 -84 21 -167 36 -82 15 -154 31 -159 36 -28 26 79 106
262 198 222 111 321 138 395 107z m-113 -231 c7 -8 10 -25 6 -40 -5 -20 -13
-25 -36 -25 -35 0 -52 25 -39 58 10 26 50 30 69 7z m361 -454 c21 -16 22 -22
11 -45 -18 -40 -82 -31 -82 13 0 15 28 51 40 51 4 0 18 -8 31 -19z"/>
<path d="M929 4930 c-9 -5 -22 -22 -28 -38 -16 -38 0 -78 40 -100 72 -39 138
-96 195 -169 38 -50 69 -79 83 -81 44 -7 72 7 87 44 14 33 13 38 -8 82 -30 61
-168 201 -238 241 -55 31 -101 38 -131 21z"/>
<path d="M1083 4253 c-279 -212 -370 -283 -380 -295 -28 -35 -24 -57 46 -217
l69 -160 -35 -12 c-139 -45 -187 -225 -90 -336 65 -74 163 -93 254 -48 73 37
107 89 111 174 3 62 -1 74 -56 201 -33 74 -58 138 -56 141 6 10 295 231 298
227 18 -25 55 -133 47 -136 -45 -15 -101 -55 -126 -91 -27 -39 -30 -50 -30
-120 0 -67 4 -83 27 -118 34 -52 113 -93 177 -93 124 1 224 115 207 235 -8 61
-272 666 -302 693 -40 35 -66 28 -161 -45z m90 -156 c8 -20 -292 -245 -303
-227 -6 9 31 44 138 126 81 62 150 113 153 113 4 1 9 -5 12 -12z m211 -499 c8
-22 6 -32 -9 -48 -34 -38 -85 -20 -85 30 0 35 19 52 55 48 22 -2 32 -10 39
-30z m-495 -192 c16 -19 10 -66 -10 -79 -44 -28 -95 25 -69 72 13 25 61 29 79
7z"/>
<path d="M2055 4306 c-33 -14 -80 -64 -89 -93 -11 -36 -306 -1162 -306 -1167
0 -3 -252 -6 -561 -6 -373 0 -567 -4 -580 -11 -12 -6 -116 -204 -269 -510
l-250 -500 0 -199 c0 -160 3 -208 16 -240 37 -93 165 -124 246 -60 16 12 61
96 119 221 l94 202 5 -921 c5 -910 5 -921 26 -948 11 -15 33 -37 48 -48 l27
-21 1979 0 1979 0 27 21 c15 11 37 33 48 48 21 27 21 38 26 948 l5 921 94
-202 c84 -182 99 -206 134 -229 79 -53 189 -23 228 62 16 36 19 68 19 243 l0
202 -250 500 c-153 306 -257 504 -269 510 -13 7 -202 11 -565 11 -300 0 -546
2 -546 5 0 3 43 168 96 368 101 383 106 413 67 466 -11 13 -30 33 -44 43 -26
20 -1451 398 -1497 398 -15 -1 -41 -7 -57 -14z m770 -331 c374 -98 683 -181
687 -184 4 -3 -37 -172 -91 -376 l-97 -370 -51 -3 -51 -3 -36 65 c-64 115
-115 158 -203 172 -64 10 -115 -9 -260 -97 l-31 -20 -32 98 c-40 120 -60 160
-97 195 -61 59 -170 75 -248 39 -22 -11 -137 -105 -255 -211 -232 -207 -232
-207 -225 -188 3 7 66 245 140 528 74 283 137 521 140 529 3 7 11 11 18 8 6
-2 318 -84 692 -182z m-372 -639 c13 -13 87 -209 103 -271 l6 -25 -263 0 -264
0 25 24 c14 13 92 83 173 155 154 136 184 152 220 117z m527 -226 c10 -5 28
-23 40 -40 l21 -30 -118 0 -118 0 65 40 c70 42 81 45 110 30z m1478 -247 c-3
-10 -67 -316 -144 -680 l-139 -663 -1343 0 -1343 0 -24 -25 c-33 -32 -33 -78
0 -110 l24 -25 1359 0 1359 0 43 23 c26 14 50 36 61 57 10 19 50 188 89 375
39 187 73 345 75 350 2 6 4 -443 4 -997 l1 -1008 -1920 0 -1920 0 1 1008 c0
554 2 1003 4 997 2 -5 36 -165 76 -355 44 -212 79 -357 91 -377 36 -60 83 -73
262 -73 153 0 157 1 181 25 33 32 33 78 0 110 -23 24 -29 25 -167 25 l-143 0
-140 663 c-76 364 -141 670 -143 680 -4 16 91 17 1898 17 1807 0 1902 -1 1898
-17z m-4135 -865 l-158 -342 -3 159 -3 160 158 318 158 318 3 -136 3 -135
-158 -342z m4635 -181 l-3 -161 -157 341 -158 342 1 138 0 138 160 -318 159
-318 -2 -162z"/>
<path d="M3375 1026 c-41 -18 -83 -69 -90 -109 -3 -18 -5 -136 -3 -264 3 -254
4 -257 72 -307 27 -20 39 -21 446 -21 407 0 419 1 446 21 15 11 37 33 48 48
20 26 21 40 21 286 0 246 -1 260 -21 286 -11 15 -33 37 -48 48 -27 20 -41 21
-434 23 -323 2 -413 0 -437 -11z m785 -346 l0 -200 -360 0 -360 0 0 200 0 200
360 0 360 0 0 -200z"/>
<path d="M4727 3606 c-77 -32 -140 -82 -205 -163 -63 -78 -102 -151 -102 -191
0 -55 68 -90 121 -62 10 6 30 32 43 58 56 111 150 199 238 223 68 18 90 88 43
134 -30 31 -63 31 -138 1z"/>
</g>
</svg>
